<mxfile host="app.diagrams.net" agent="Mozilla/5.0 (X11; Ubuntu; Linux x86_64; rv:128.0) Gecko/20100101 Firefox/128.0" version="24.7.6">
  <diagram name="Page-1" id="7RcpdBcQhR3ZMe3LwO5s">
    <mxGraphModel dx="1364" dy="795" grid="1" gridSize="10" guides="1" tooltips="1" connect="1" arrows="1" fold="1" page="1" pageScale="1" pageWidth="850" pageHeight="1100" math="0" shadow="0">
      <root>
        <mxCell id="0" />
        <mxCell id="1" parent="0" />
        <mxCell id="0bWljKnYHyFahBLJ5ViV-7" style="edgeStyle=orthogonalEdgeStyle;rounded=0;orthogonalLoop=1;jettySize=auto;html=1;entryX=0;entryY=0.5;entryDx=0;entryDy=0;" edge="1" parent="1" source="0bWljKnYHyFahBLJ5ViV-1" target="0bWljKnYHyFahBLJ5ViV-4">
          <mxGeometry relative="1" as="geometry" />
        </mxCell>
        <mxCell id="0bWljKnYHyFahBLJ5ViV-1" value="ArtistID" style="shape=datastore;whiteSpace=wrap;html=1;fillColor=#d5e8d4;strokeColor=#82b366;" vertex="1" parent="1">
          <mxGeometry x="150" y="150" width="90" height="110" as="geometry" />
        </mxCell>
        <mxCell id="0bWljKnYHyFahBLJ5ViV-2" value="&lt;div&gt;User Assets&lt;/div&gt;" style="shape=datastore;whiteSpace=wrap;html=1;" vertex="1" parent="1">
          <mxGeometry x="150" y="470" width="90" height="110" as="geometry" />
        </mxCell>
        <mxCell id="0bWljKnYHyFahBLJ5ViV-10" style="edgeStyle=orthogonalEdgeStyle;rounded=0;orthogonalLoop=1;jettySize=auto;html=1;entryX=0;entryY=0.5;entryDx=0;entryDy=0;" edge="1" parent="1" source="0bWljKnYHyFahBLJ5ViV-3" target="0bWljKnYHyFahBLJ5ViV-9">
          <mxGeometry relative="1" as="geometry">
            <Array as="points">
              <mxPoint x="195" y="450" />
            </Array>
          </mxGeometry>
        </mxCell>
        <mxCell id="0bWljKnYHyFahBLJ5ViV-3" value="Daily MonLi" style="shape=datastore;whiteSpace=wrap;html=1;" vertex="1" parent="1">
          <mxGeometry x="150" y="280" width="90" height="110" as="geometry" />
        </mxCell>
        <mxCell id="0bWljKnYHyFahBLJ5ViV-4" value="&lt;div&gt;Pull current listeners&lt;/div&gt;" style="rounded=0;whiteSpace=wrap;html=1;fillColor=#d5e8d4;strokeColor=#82b366;" vertex="1" parent="1">
          <mxGeometry x="320" y="210" width="120" height="60" as="geometry" />
        </mxCell>
        <mxCell id="0bWljKnYHyFahBLJ5ViV-8" style="edgeStyle=orthogonalEdgeStyle;rounded=0;orthogonalLoop=1;jettySize=auto;html=1;entryX=1;entryY=0.609;entryDx=0;entryDy=0;entryPerimeter=0;" edge="1" parent="1" source="0bWljKnYHyFahBLJ5ViV-4" target="0bWljKnYHyFahBLJ5ViV-3">
          <mxGeometry relative="1" as="geometry">
            <Array as="points">
              <mxPoint x="380" y="347" />
            </Array>
          </mxGeometry>
        </mxCell>
        <mxCell id="0bWljKnYHyFahBLJ5ViV-9" value="&lt;div&gt;Update User Stock Values&lt;br&gt;&lt;/div&gt;" style="rounded=0;whiteSpace=wrap;html=1;" vertex="1" parent="1">
          <mxGeometry x="320" y="420" width="120" height="60" as="geometry" />
        </mxCell>
        <mxCell id="0bWljKnYHyFahBLJ5ViV-11" style="edgeStyle=orthogonalEdgeStyle;rounded=0;orthogonalLoop=1;jettySize=auto;html=1;entryX=0.978;entryY=0.636;entryDx=0;entryDy=0;entryPerimeter=0;" edge="1" parent="1" source="0bWljKnYHyFahBLJ5ViV-9" target="0bWljKnYHyFahBLJ5ViV-2">
          <mxGeometry relative="1" as="geometry">
            <Array as="points">
              <mxPoint x="380" y="540" />
            </Array>
          </mxGeometry>
        </mxCell>
        <mxCell id="0bWljKnYHyFahBLJ5ViV-13" style="edgeStyle=orthogonalEdgeStyle;rounded=0;orthogonalLoop=1;jettySize=auto;html=1;entryX=0.5;entryY=1;entryDx=0;entryDy=0;" edge="1" parent="1" source="0bWljKnYHyFahBLJ5ViV-12" target="0bWljKnYHyFahBLJ5ViV-2">
          <mxGeometry relative="1" as="geometry" />
        </mxCell>
        <mxCell id="0bWljKnYHyFahBLJ5ViV-12" value="&lt;div&gt;Buy/Sell Stocks&lt;/div&gt;" style="rounded=0;whiteSpace=wrap;html=1;" vertex="1" parent="1">
          <mxGeometry x="320" y="610" width="120" height="60" as="geometry" />
        </mxCell>
        <mxCell id="0bWljKnYHyFahBLJ5ViV-15" style="edgeStyle=orthogonalEdgeStyle;rounded=0;orthogonalLoop=1;jettySize=auto;html=1;entryX=1;entryY=0.5;entryDx=0;entryDy=0;" edge="1" parent="1" source="0bWljKnYHyFahBLJ5ViV-14" target="0bWljKnYHyFahBLJ5ViV-4">
          <mxGeometry relative="1" as="geometry">
            <Array as="points">
              <mxPoint x="540" y="240" />
            </Array>
          </mxGeometry>
        </mxCell>
        <mxCell id="0bWljKnYHyFahBLJ5ViV-14" value="Daily Trigger" style="shape=hexagon;perimeter=hexagonPerimeter2;whiteSpace=wrap;html=1;fixedSize=1;" vertex="1" parent="1">
          <mxGeometry x="480" y="80" width="120" height="80" as="geometry" />
        </mxCell>
        <mxCell id="0bWljKnYHyFahBLJ5ViV-16" value="" style="endArrow=classic;html=1;rounded=0;exitX=0.5;exitY=1;exitDx=0;exitDy=0;entryX=1;entryY=0.5;entryDx=0;entryDy=0;" edge="1" parent="1" source="0bWljKnYHyFahBLJ5ViV-14" target="0bWljKnYHyFahBLJ5ViV-9">
          <mxGeometry width="50" height="50" relative="1" as="geometry">
            <mxPoint x="400" y="440" as="sourcePoint" />
            <mxPoint x="520" y="450" as="targetPoint" />
            <Array as="points">
              <mxPoint x="540" y="450" />
            </Array>
          </mxGeometry>
        </mxCell>
      </root>
    </mxGraphModel>
  </diagram>
</mxfile>
